:SAMPLES-PER-SECOND 30
:FULLY-SPECIFIED
:DEGREES
1
root  9.45668 40.8588 -0.672306 -144.699 -85.8174 146.219
RightUpLeg  2.63008 -10.0937 -9.57407
RightLeg  4.25834 -7.23503 2.95731
RightFoot  -4.78466 -0.121416 1.56738
RightToes  0.00048216 0.542163 -0.142577
Spine  3.97216 1.66542 -1.95648
Spine1  -0.585414 1.77125 -0.141209
HEad  8.13287 -2.44103 1.53389
LeftShoulder1  1.41119 -3.93353 -11.7915
LeftArm  -18.3729 14.6283 -6.15278
LeftForeArm  20.531 -4.23103 -0.722864
LeftHand  -0.25398 0.0180481 5.50724
RightShoulder  0.56573 0.336119 6.92565
RightArm  -21.291 -4.34753 5.16817
RightForeArm  4.90178 2.75775 2.35933
RightHand  -1.58142 4.9771 -17.9362
LeftUpLeg  -1.32533 4.25578 0.0223975
LeftLeg  1.28078 20.9946 -4.75105
LeftFoot  -0.994238 -0.299598 3.37467
LeftToes  1.06245e-005 4.65856e-005 -8.18504e-006
2
root  9.44365 40.8633 -0.667508 -143.668 -85.8923 145.269
RightUpLeg  2.5919 -10.1059 -9.5816
RightLeg  4.23185 -7.35688 2.96491
RightFoot  -4.72773 -0.118411 1.52076
RightToes  0.00048216 0.542163 -0.142577
Spine  3.89069 1.6838 -2.03884
Spine1  -0.605161 1.77347 -0.0390078
HEad  7.99487 -2.92685 1.37778
LeftShoulder1  1.42353 -3.98535 -11.8293
LeftArm  -18.3227 14.6185 -6.16844
LeftForeArm  20.5771 -4.19342 -0.737462
LeftHand  -0.25398 0.0180481 5.50724
RightShoulder  0.565724 0.339425 6.91186
RightArm  -21.206 -4.23453 5.15701
RightForeArm  4.66909 2.69407 2.39999
RightHand  -1.59405 4.97399 -18.0797
LeftUpLeg  -1.34722 4.24134 -0.00336549
LeftLeg  1.14739 20.9207 -4.81783
LeftFoot  -0.912462 -0.308879 3.44416
LeftToes  1.06245e-005 4.65856e-005 -8.18504e-006
3
root  9.41981 40.8696 -0.659019 -141.335 -86.0219 143.063
RightUpLeg  2.5422 -10.1441 -9.62936
RightLeg  4.20602 -7.56156 2.97319
RightFoot  -4.68829 -0.113666 1.44714
RightToes  0.00048216 0.542163 -0.142577
Spine  3.75614 1.70659 -2.15823
Spine1  -0.634435 1.78296 0.0520463
HEad  7.81475 -3.86575 1.21384
LeftShoulder1  1.44591 -4.10257 -11.8328
LeftArm  -18.3175 14.6678 -6.21615
LeftForeArm  20.6415 -4.22262 -0.738875
LeftHand  -0.25398 0.0180481 5.50724
RightShoulder  0.565699 0.350513 6.85659
RightArm  -21.1943 -4.13475 5.22582
RightForeArm  4.68787 2.67312 2.41199
RightHand  -1.58459 4.94311 -18.0263
LeftUpLeg  -1.36358 4.18325 -0.0818613
LeftLeg  0.904232 20.81 -4.92346
LeftFoot  -0.773021 -0.323738 3.55004
LeftToes  1.06245e-005 4.65856e-005 -8.18504e-006
4
root  9.40143 40.8714 -0.649344 -138.708 -86.1537 140.484
RightUpLeg  2.58295 -10.1767 -9.7009
RightLeg  4.15396 -7.69222 2.97033
RightFoot  -4.70073 -0.118283 1.51877
RightToes  0.00048216 0.542163 -0.142577
Spine  3.73827 1.70784 -2.20037
Spine1  -0.669783 1.79173 0.0207147
HEad  7.58794 -4.84284 1.19611
LeftShoulder1  1.46888 -4.21332 -11.8618
LeftArm  -18.2577 14.7512 -6.17912
LeftForeArm  20.6673 -4.33713 -0.767722
LeftHand  -0.25398 0.0180481 5.50724
RightShoulder  0.565668 0.387488 6.79065
RightArm  -21.2597 -4.09611 5.3215
RightForeArm  4.96835 2.74251 2.39466
RightHand  -1.51848 4.72456 -17.6543
LeftUpLeg  -1.34308 4.11243 -0.171985
LeftLeg  0.754728 20.6924 -4.9754
LeftFoot  -0.699424 -0.333045 3.62047
LeftToes  1.06245e-005 4.65856e-005 -8.18504e-006
5
root  9.39492 40.8679 -0.637698 -136.311 -86.2908 138.056
RightUpLeg  2.7043 -10.1933 -9.75725
RightLeg  4.07935 -7.81876 2.96607
RightFoot  -4.72037 -0.123364 1.59761
RightToes  0.00048216 0.542163 -0.142577
Spine  3.86238 1.69133 -2.14866
Spine1  -0.716806 1.79218 -0.0861801
HEad  7.21705 -5.66896 1.27153
LeftShoulder1  1.48866 -4.28016 -11.9629
LeftArm  -18.0482 14.7911 -6.0385
LeftForeArm  20.6275 -4.4196 -0.852491
LeftHand  -0.25398 0.0180481 5.50724
RightShoulder  0.566252 0.430816 6.77529
RightArm  -21.2428 -4.02997 5.31439
RightForeArm  5.0196 2.79093 2.41289
RightHand  -1.46295 4.49065 -17.414
LeftUpLeg  -1.32694 4.06664 -0.232302
LeftLeg  0.777401 20.5271 -4.95727
LeftFoot  -0.722053 -0.333648 3.63616
LeftToes  1.06245e-005 4.65856e-005 -8.18504e-006
6
root  9.39383 40.8596 -0.62309 -133.622 -86.4311 135.38
RightUpLeg  2.76156 -10.2506 -9.82429
RightLeg  4.06845 -8.00536 2.99693
RightFoot  -4.80569 -0.118551 1.52292
RightToes  0.00048216 0.542163 -0.142577
Spine  3.96447 1.68091 -2.10263
Spine1  -0.757699 1.79249 -0.157581
HEad  6.76924 -6.35458 1.30883
LeftShoulder1  1.50422 -4.31962 -12.0764
LeftArm  -17.8575 14.7756 -5.91066
LeftForeArm  20.5467 -4.39386 -0.921659
LeftHand  -0.25398 0.0180481 5.50724
RightShoulder  0.56505 0.414149 6.79973
RightArm  -21.1758 -3.8905 5.22469
RightForeArm  4.80806 2.74445 2.45181
RightHand  -1.48225 4.53298 -17.5629
LeftUpLeg  -1.41989 4.03131 -0.286462
LeftLeg  0.924316 20.3292 -4.90606
LeftFoot  -0.829162 -0.326685 3.60517
LeftToes  1.06245e-005 4.65856e-005 -8.18504e-006
